<?xml version="1.0" encoding="utf-8"?>
<svg xmlns="http://www.w3.org/2000/svg" viewBox="0 0 48 48" width="480" height="480">
  <path fill="#80d8ff" d="M42,38V10c0-2.209-1.791-4-4-4H10c-2.209,0-4,1.791-4,4v28c0,2.209,1.791,4,4,4h28 C40.209,42,42,40.209,42,38z" />
  <path fill="#ffeb3b" d="M20,15c0-2.766-2.238-5-5-5s-5,2.234-5,5c0,2.762,2.238,5,5,5S20,17.762,20,15" />
  <path fill="#795548" d="M34,31h-3v-8h3V31z" />
  <circle cx="29.5" cy="14.5" r="2.5" fill="#7cb342" />
  <circle cx="35.5" cy="14.5" r="2.5" fill="#7cb342" />
  <circle cx="29.5" cy="21.5" r="2.5" fill="#7cb342" />
  <circle cx="35.5" cy="21.5" r="2.5" fill="#7cb342" />
  <circle cx="28.5" cy="17.5" r="2.5" fill="#7cb342" />
  <circle cx="36.5" cy="17.5" r="2.5" fill="#7cb342" />
  <path fill="#7cb342" d="M32.5,20c1.382,0,2.5,1.118,2.5,2.5c0,1.382-1.118,2.5-2.5,2.5c-1.382,0-2.5-1.118-2.5-2.5 C30,21.118,31.118,20,32.5,20z" />
  <path fill="#7cb342" d="M32.5,10c1.382,0,2.5,1.118,2.5,2.5S33.882,15,32.5,15c-1.382,0-2.5-1.118-2.5-2.5 S31.118,10,32.5,10z" />
  <path fill="#7cb342" d="M32.5,12.5c2.303,0,4.167,2.422,4.167,5.417s-1.863,5.417-4.167,5.417s-4.167-2.423-4.167-5.417 S30.197,12.5,32.5,12.5z" />
  <path fill="#9ccc65" d="M31,36.8c0,0.76,0,1.2,0,1.2H6v-8.35C8.61,28.59,11.86,28,15.39,28c4.52,0,8.59,1.08,11.44,2.82 C29.41,32.38,31,34.49,31,36.8z" />
  <path fill="#7cb342" d="M42,30.81V38c0,2.21-1.79,4-4,4H10c-1.86,0-3.43-1.27-3.87-3C6.04,38.68,6,38.35,6,38v-1h7 c5.53,0,9.15-3.82,13.83-6.18C28.92,29.76,31.22,29,34,29C37.63,29,40.13,29.78,42,30.81z" />
</svg>