<?xml version="1.0" encoding="utf-8"?>
<svg xmlns="http://www.w3.org/2000/svg" viewBox="0 0 48 48" width="480" height="480">
  <path fill="#ef5350" d="M42,10v28c0,2.21-1.79,4-4,4H10c-1.86,0-3.43-1.27-3.87-3C6.04,38.68,6,38.35,6,38V10 c0-2.21,1.79-4,4-4h28C40.21,6,42,7.79,42,10z" />
  <path fill="#fb8c00" d="M42,18.11V38c0,2.21-1.79,4-4,4H22.33C18.49,39.18,16,34.63,16,29.5C16,20.94,22.94,14,31.5,14 C35.55,14,39.25,15.56,42,18.11z" />
  <path fill="#ffb74d" d="M42,24.81v9.38C40.21,38.2,36.18,41,31.5,41C25.15,41,20,35.85,20,29.5S25.15,18,31.5,18 C36.18,18,40.21,20.8,42,24.81z" />
  <circle cx="31.5" cy="29.5" r="7.5" fill="#ffeb3b" />
  <path fill="#5d4037" d="M34,31h-3v-8h3V31z" />
  <circle cx="29.5" cy="14.5" r="2.5" fill="#827717" />
  <circle cx="35.5" cy="14.5" r="2.5" fill="#827717" />
  <circle cx="29.5" cy="21.5" r="2.5" fill="#827717" />
  <circle cx="35.5" cy="21.5" r="2.5" fill="#827717" />
  <circle cx="28.5" cy="17.5" r="2.5" fill="#827717" />
  <circle cx="36.5" cy="17.5" r="2.5" fill="#827717" />
  <path fill="#827717" d="M32.5,20c1.382,0,2.5,1.118,2.5,2.5S33.882,25,32.5,25S30,23.882,30,22.5S31.118,20,32.5,20z" />
  <path fill="#827717" d="M32.5,10c1.382,0,2.5,1.118,2.5,2.5S33.882,15,32.5,15S30,13.882,30,12.5S31.118,10,32.5,10z" />
  <path fill="#827717" d="M32.5,12.5c2.303,0,4.167,2.422,4.167,5.417s-1.863,5.417-4.167,5.417s-4.167-2.423-4.167-5.417 S30.197,12.5,32.5,12.5z" />
  <path fill="#9e9d24" d="M31,36.8c0,0.76,0,1.2,0,1.2H6v-8.35C8.61,28.59,11.86,28,15.39,28c4.52,0,8.59,1.08,11.44,2.82 C29.41,32.38,31,34.49,31,36.8z" />
  <path fill="#827717" d="M42,30.81V38c0,2.21-1.79,4-4,4H10c-1.86,0-3.43-1.27-3.87-3C6.04,38.68,6,38.35,6,38v-1h7 c5.53,0,9.15-3.82,13.83-6.18C28.92,29.76,31.22,29,34,29C37.63,29,40.13,29.78,42,30.81z" />
</svg>